<svg width="172" height="36" viewBox="0 0 172 36" fill="none" xmlns="http://www.w3.org/2000/svg">
<g clip-path="url(#clip0_3112_45240)">
<path d="M26.1953 22.866V21.9926V20.7864V15.109V13.9028L27.1247 11.9688L31.7714 8.28785C32.3909 7.76795 33.3203 8.20467 33.3203 9.01572V26.6093C33.3203 27.4203 32.3703 27.8571 31.7507 27.3372L26.1953 22.866Z" fill="#00AC47"/>
<path d="M10.8203 5.625L3.32031 13.125H10.8203V5.625Z" fill="#FE2C25"/>
<path d="M10.8203 13.125H3.32031V22.875H10.8203V13.125Z" fill="#2684FC"/>
<path d="M3.32031 22.875V27.875C3.32031 29.25 4.44531 30.375 5.82033 30.375H10.8203V22.875H3.32031Z" fill="#0066DA"/>
<path d="M27.1328 8.09633C27.1328 6.7371 26.0317 5.625 24.6859 5.625H19.7922H10.8203V13.125H20.0078V18L27.1328 17.7756V8.09633Z" fill="#FFBA00"/>
<path d="M20.0078 22.875H10.8203V30.375H19.7922H24.6859C26.0317 30.375 27.1328 29.2645 27.1328 27.9073V18H20.0078V22.875Z" fill="#00AC47"/>
<path d="M27.1328 12V23.625L20.0078 18L27.1328 12Z" fill="#00832D"/>
</g>
<path d="M61.0623 18.262C61.0623 20.462 60.4096 22.2147 59.1043 23.52C57.6376 25.0747 55.709 25.852 53.3183 25.852C51.0303 25.852 49.0943 25.06 47.5103 23.476C45.9263 21.892 45.1343 19.9413 45.1343 17.624C45.1343 15.3067 45.9263 13.356 47.5103 11.772C49.0943 10.188 51.0303 9.396 53.3183 9.396C54.477 9.396 55.5696 9.60133 56.5963 10.012C57.623 10.4227 58.4663 11.002 59.1263 11.75L57.6743 13.202C57.1903 12.6153 56.5596 12.1607 55.7823 11.838C55.0196 11.5007 54.1983 11.332 53.3183 11.332C51.6023 11.332 50.1503 11.926 48.9623 13.114C47.789 14.3167 47.2023 15.82 47.2023 17.624C47.2023 19.428 47.789 20.9313 48.9623 22.134C50.1503 23.322 51.6023 23.916 53.3183 23.916C54.8876 23.916 56.193 23.476 57.2343 22.596C58.2756 21.716 58.877 20.506 59.0383 18.966H53.3183V17.074H60.9523C61.0256 17.4847 61.0623 17.8807 61.0623 18.262ZM62.5279 20.11C62.5279 18.4527 63.0486 17.0813 64.0899 15.996C65.1459 14.9107 66.4732 14.368 68.0719 14.368C69.6706 14.368 70.9906 14.9107 72.0319 15.996C73.0879 17.0813 73.6159 18.4527 73.6159 20.11C73.6159 21.782 73.0879 23.1533 72.0319 24.224C70.9906 25.3093 69.6706 25.852 68.0719 25.852C66.4732 25.852 65.1459 25.3093 64.0899 24.224C63.0486 23.1387 62.5279 21.7673 62.5279 20.11ZM64.5519 20.11C64.5519 21.2687 64.8892 22.2073 65.5639 22.926C66.2386 23.6447 67.0746 24.004 68.0719 24.004C69.0692 24.004 69.9052 23.6447 70.5799 22.926C71.2546 22.2073 71.5919 21.2687 71.5919 20.11C71.5919 18.966 71.2546 18.0347 70.5799 17.316C69.8906 16.5827 69.0546 16.216 68.0719 16.216C67.0892 16.216 66.2532 16.5827 65.5639 17.316C64.8892 18.0347 64.5519 18.966 64.5519 20.11ZM74.9203 20.11C74.9203 18.4527 75.4409 17.0813 76.4823 15.996C77.5383 14.9107 78.8656 14.368 80.4643 14.368C82.0629 14.368 83.3829 14.9107 84.4243 15.996C85.4803 17.0813 86.0083 18.4527 86.0083 20.11C86.0083 21.782 85.4803 23.1533 84.4243 24.224C83.3829 25.3093 82.0629 25.852 80.4643 25.852C78.8656 25.852 77.5383 25.3093 76.4823 24.224C75.4409 23.1387 74.9203 21.7673 74.9203 20.11ZM76.9443 20.11C76.9443 21.2687 77.2816 22.2073 77.9563 22.926C78.6309 23.6447 79.4669 24.004 80.4643 24.004C81.4616 24.004 82.2976 23.6447 82.9723 22.926C83.6469 22.2073 83.9843 21.2687 83.9843 20.11C83.9843 18.966 83.6469 18.0347 82.9723 17.316C82.2829 16.5827 81.4469 16.216 80.4643 16.216C79.4816 16.216 78.6456 16.5827 77.9563 17.316C77.2816 18.0347 76.9443 18.966 76.9443 20.11ZM92.7686 24.004C93.766 24.004 94.58 23.6447 95.2106 22.926C95.8706 22.2073 96.2006 21.2687 96.2006 20.11C96.2006 18.9807 95.8706 18.0493 95.2106 17.316C94.5653 16.5827 93.7513 16.216 92.7686 16.216C91.8006 16.216 90.9866 16.5827 90.3266 17.316C89.6666 18.0493 89.3366 18.9807 89.3366 20.11C89.3366 21.254 89.6666 22.1853 90.3266 22.904C90.9866 23.6373 91.8006 24.004 92.7686 24.004ZM92.7026 30.604C92.1013 30.604 91.5366 30.5233 91.0086 30.362C90.4806 30.2153 89.9966 30.0027 89.5566 29.724C89.1313 29.4453 88.7646 29.1153 88.4566 28.734C88.1486 28.3527 87.914 27.9273 87.7526 27.458L89.6666 26.666C89.8866 27.2967 90.268 27.8027 90.8106 28.184C91.3533 28.5653 91.984 28.756 92.7026 28.756C93.8026 28.756 94.6606 28.426 95.2766 27.766C95.8926 27.106 96.2006 26.1967 96.2006 25.038V24.004H96.1126C95.7313 24.576 95.2106 25.0307 94.5506 25.368C93.9053 25.6907 93.2013 25.852 92.4386 25.852C91.0306 25.852 89.8206 25.302 88.8086 24.202C87.8113 23.0727 87.3126 21.7087 87.3126 20.11C87.3126 18.5113 87.8113 17.1547 88.8086 16.04C89.8206 14.9253 91.0306 14.368 92.4386 14.368C93.2013 14.368 93.9053 14.5367 94.5506 14.874C95.2106 15.1967 95.7313 15.644 96.1126 16.216H96.2006V14.72H98.1366V25.038C98.1366 26.7687 97.6453 28.1253 96.6626 29.108C95.6653 30.1053 94.3453 30.604 92.7026 30.604ZM102.71 9.748V25.5H100.686V9.748H102.71ZM109.991 25.852C108.407 25.852 107.102 25.3093 106.075 24.224C105.048 23.1387 104.535 21.7673 104.535 20.11C104.535 18.4673 105.034 17.1033 106.031 16.018C107.028 14.918 108.304 14.368 109.859 14.368C111.458 14.368 112.726 14.8887 113.665 15.93C114.618 16.9567 115.095 18.4013 115.095 20.264L115.073 20.484H106.603C106.632 21.54 106.984 22.3907 107.659 23.036C108.334 23.6813 109.14 24.004 110.079 24.004C111.37 24.004 112.382 23.3587 113.115 22.068L114.919 22.948C114.435 23.8573 113.76 24.5687 112.895 25.082C112.044 25.5953 111.076 25.852 109.991 25.852ZM106.757 18.812H112.939C112.88 18.064 112.572 17.448 112.015 16.964C111.472 16.4653 110.739 16.216 109.815 16.216C109.052 16.216 108.392 16.4507 107.835 16.92C107.292 17.3893 106.933 18.02 106.757 18.812ZM124.319 25.5H122.295V9.748H124.319L129.797 19.34H129.885L135.363 9.748H137.387V25.5H135.363V16.15L135.451 13.51H135.363L130.435 22.156H129.247L124.319 13.51H124.231L124.319 16.15V25.5ZM145.127 25.852C143.543 25.852 142.238 25.3093 141.211 24.224C140.184 23.1387 139.671 21.7673 139.671 20.11C139.671 18.4673 140.17 17.1033 141.167 16.018C142.164 14.918 143.44 14.368 144.995 14.368C146.594 14.368 147.862 14.8887 148.801 15.93C149.754 16.9567 150.231 18.4013 150.231 20.264L150.209 20.484H141.739C141.768 21.54 142.12 22.3907 142.795 23.036C143.47 23.6813 144.276 24.004 145.215 24.004C146.506 24.004 147.518 23.3587 148.251 22.068L150.055 22.948C149.571 23.8573 148.896 24.5687 148.031 25.082C147.18 25.5953 146.212 25.852 145.127 25.852ZM141.893 18.812H148.075C148.016 18.064 147.708 17.448 147.151 16.964C146.608 16.4653 145.875 16.216 144.951 16.216C144.188 16.216 143.528 16.4507 142.971 16.92C142.428 17.3893 142.069 18.02 141.893 18.812ZM157.111 25.852C155.527 25.852 154.222 25.3093 153.195 24.224C152.168 23.1387 151.655 21.7673 151.655 20.11C151.655 18.4673 152.154 17.1033 153.151 16.018C154.148 14.918 155.424 14.368 156.979 14.368C158.578 14.368 159.846 14.8887 160.785 15.93C161.738 16.9567 162.215 18.4013 162.215 20.264L162.193 20.484H153.723C153.752 21.54 154.104 22.3907 154.779 23.036C155.454 23.6813 156.26 24.004 157.199 24.004C158.49 24.004 159.502 23.3587 160.235 22.068L162.039 22.948C161.555 23.8573 160.88 24.5687 160.015 25.082C159.164 25.5953 158.196 25.852 157.111 25.852ZM153.877 18.812H160.059C160 18.064 159.692 17.448 159.135 16.964C158.592 16.4653 157.859 16.216 156.935 16.216C156.172 16.216 155.512 16.4507 154.955 16.92C154.412 17.3893 154.053 18.02 153.877 18.812ZM168.094 25.676C167.214 25.676 166.48 25.4047 165.894 24.862C165.322 24.3193 165.028 23.564 165.014 22.596V16.568H163.122V14.72H165.014V11.42H167.038V14.72H169.678V16.568H167.038V21.936C167.038 22.6547 167.177 23.146 167.456 23.41C167.734 23.6593 168.05 23.784 168.402 23.784C168.563 23.784 168.717 23.7693 168.864 23.74C169.025 23.696 169.172 23.6447 169.304 23.586L169.942 25.39C169.414 25.5807 168.798 25.676 168.094 25.676Z" fill="#5F6368"/>
<defs>
<clipPath id="clip0_3112_45240">
<rect width="36" height="36" fill="white" transform="translate(0.320312)"/>
</clipPath>
</defs>
</svg>
